<?xml version="1.0" encoding="UTF-8"?>
<svg xmlns="http://www.w3.org/2000/svg" viewBox="0 0 1000 1000">
  <defs>
    <style>
      .cls-1 {
        fill: #fff;
      }

      .cls-1, .cls-2 {
        stroke-width: 0px;
      }

      .cls-2 {
        fill: #40b3bf;
      }
    </style>
  </defs>
  <g id="Layer_2" data-name="Layer 2">
    <rect class="cls-1" width="1000" height="1000"/>
  </g>
  <g id="Layer_1" data-name="Layer 1">
    <g>
      <polygon class="cls-2" points="628.54 212.25 500 115.33 371.98 211.86 82.5 430.14 371.98 648.41 500 744.94 628.54 648.02 917.5 430.14 628.54 212.25"/>
      <polygon class="cls-2" points="498.76 777.81 368.66 677.07 102.96 884.67 895.61 884.67 629.39 676.66 498.76 777.81"/>
      <polygon class="cls-2" points="917.5 866.6 647.31 661.54 917.5 456.46 917.5 866.6"/>
      <polygon class="cls-2" points="82.5 866.6 352.69 661.54 82.5 456.46 82.5 866.6"/>
      <path class="cls-1" d="M526.53,560.51c-24.74,11.42-46.43,15.6-72.68,15.6-76.49,0-111.5-49.85-94.37-118.73,18.65-74.97,91.33-140.42,180.76-140.42,79.53,0,109.21,50.99,94.75,109.21-14.08,56.7-59.36,86.76-95.13,86.76-17.12,0-27.78-11.42-23.21-33.49h-1.14c-16.74,19.41-39.2,33.49-62.41,33.49s-38.05-18.65-30.44-49.09c11.8-48.33,58.98-86.76,110.74-86.76,17.88,0,34.25,3.8,43.76,8.75l-29.68,66.59c-12.18,27.78-9.51,39.58,2.28,39.96,16.74,0,50.61-17.89,62.41-64.69,12.94-52.51-13.7-92.85-80.29-92.85-55.94,0-130.91,47.57-148.79,120.25-16.36,64.69,20.93,102.36,79.15,102.36,21.31,0,44.14-4.95,62.41-14.08l1.9,17.12ZM543.28,401.45c-3.42-1.14-11.8-3.04-19.79-3.04-29.3,0-61.65,27.02-70.02,59.74-3.81,15.22,0,28.92,17.88,28.92,19.41,0,44.52-25.88,54.42-47.19l17.5-38.43Z"/>
    </g>
  </g>
</svg>